# xmcd
# 
# Track frame offsets:
#     150
#     21637
#     37855
#     54887
#     70542
#     87945
#     107160
#     124076
#     139445
#     160677
#     178907
#     196047
#     210622
#     227707
#     248740
# 
# Disc length: 3568
# 
# Revision: 2
# Processed by: cddbd v1.5.2PL0 Copyright (c) Steve Scherf et al.
# Submitted via: fre:ac v1.0.17
# 
DISCID=c80dee0f
DTITLE=Bryan Adams - On a Day Like Today
DYEAR=1999
DGENRE=Rock
TTITLE0=How Do Ya Feel Tonight
TTITLE1=C'mon C'mon C'mon
TTITLE2=Getaway
TTITLE3=On a Day Like Today
TTITLE4=Fearless
TTITLE5=I'm a Liar
TTITLE6=Cloud Number Nine
TTITLE7=When You're Gone
TTITLE8=Inside Out
TTITLE9=If I Had You
TTITLE10=Before the Night Is Over
TTITLE11=I Don't Wanna Live Forever
TTITLE12=Where Angels Fear to Tread
TTITLE13=Lie to Me
TTITLE14=Cloud Number Nine (Chicane Mix)
EXTD=
EXTT0=
EXTT1=
EXTT2=
EXTT3=
EXTT4=
EXTT5=
EXTT6=
EXTT7=
EXTT8=
EXTT9=
EXTT10=
EXTT11=
EXTT12=
EXTT13=
EXTT14=
PLAYORDER=
